# xmcd CD database file
#
# Track frame offsets:
#	150
#	12796
#	29344
#	46230
#	64809
#	79490
#	102937
#	117966
#	137844
#	153856
#	171880
#
# Disc length: 2536 seconds
#
# Revision: 0
# Processed by: cddbd v1.4PL0 Copyright (c) Steve Scherf et al.
# Submitted via: CDex 1.50
#
DISCID=8a09e60b
DTITLE=43Cambridge - Too Fast For Blues (Live)
DYEAR=2001
DGENRE=Blues
TTITLE0=Big Road Blues
TTITLE1=Stone Free
TTITLE2=Train To Nowhere
TTITLE3=Phred
TTITLE4=Boom Boom
TTITLE5=Outside Help
TTITLE6=Homecoming
TTITLE7=Don't Piss Me Off
TTITLE8=Sweet Little Thing
TTITLE9=Mojo Workin'
TTITLE10=Long To Go
EXTD=YEAR: 2001
EXTT0=
EXTT1=
EXTT2=
EXTT3=
EXTT4=
EXTT5=
EXTT6=
EXTT7=
EXTT8=
EXTT9=
EXTT10=
PLAYORDER=
